# Blender v2.79 (sub 0) OBJ File: ''
# www.blender.org
o Cube
v 1.000000 -1.000000 -1.000000
v 1.000000 -1.000000 1.000000
v -1.000000 -1.000000 1.000000
v -1.000000 -1.000000 -1.000000
v 1.000000 1.000000 -0.999999
v 0.999999 1.000000 1.000001
v -1.000000 1.000000 1.000000
v -1.000000 1.000000 -1.000000
v 3.003635 -1.000000 -1.000000
v 3.003635 -1.000000 1.000000
v 3.003635 1.000000 -0.999999
v 3.003634 1.000000 1.000001
v -3.000288 -1.000000 1.000000
v -3.000288 -1.000000 -1.000000
v -3.000289 1.000000 1.000000
v -3.000288 1.000000 -1.000000
v 0.602865 -0.602865 1.000000
v -0.602865 -0.602865 1.000000
v 0.602864 0.602865 1.000000
v -0.602865 0.602865 1.000000
v 0.602865 -0.602865 3.005421
v -0.602865 -0.602865 3.005421
v 0.602864 0.602865 3.005421
v -0.602865 0.602865 3.005421
v -1.000000 -1.000000 -1.000000
v -1.000000 1.000000 -1.000000
v -3.000288 -1.000000 -1.000000
v -3.000288 1.000000 -1.000000
v 0.664652 -0.720387 -1.000000
v -0.776122 -0.720387 -1.000000
v 0.664652 0.720387 -1.000000
v -0.776122 0.720387 -1.000000
v 2.108044 -0.720387 -1.000000
v 2.108044 0.720387 -1.000000
v -0.776122 -0.720387 -1.000000
v -0.776122 0.720387 -1.000000
v -2.217104 -0.720387 -1.000000
v -2.217104 0.720387 -1.000000
v 0.624339 -0.686775 -2.693924
v -0.749210 -0.686775 -2.693925
v 0.624340 0.686775 -2.693924
v -0.749210 0.686775 -2.693924
v 2.000385 -0.686775 -2.693924
v 2.000386 0.686775 -2.693924
v -0.749210 -0.686775 -2.693925
v -0.749210 0.686775 -2.693924
v -2.122957 -0.686775 -2.693925
v -2.122958 0.686775 -2.693924
v 0.342728 -0.451968 -5.675786
v -0.561207 -0.451968 -5.675786
v 0.342728 0.451968 -5.675786
v -0.561207 0.451968 -5.675786
v 1.248307 -0.451968 -5.675786
v 1.248307 0.451968 -5.675786
v -0.561207 -0.451968 -5.675786
v -0.561207 0.451968 -5.675786
v -1.465273 -0.451968 -5.675786
v -1.465273 0.451968 -5.675786
v -0.102167 -0.081014 -7.675090
v -0.264196 -0.081014 -7.675090
v -0.102167 0.081014 -7.675090
v -0.264196 0.081014 -7.675090
v 0.060156 -0.081014 -7.675090
v 0.060156 0.081014 -7.675090
v -0.264196 -0.081014 -7.675090
v -0.264196 0.081014 -7.675090
v -0.426249 -0.081014 -7.675090
v -0.426249 0.081014 -7.675090
vn 0.0000 -1.0000 0.0000
vn 0.0000 1.0000 0.0000
vn 0.0000 -0.0000 1.0000
vn 0.0000 0.9998 -0.0198
vn 1.0000 -0.0000 0.0000
vn 0.0000 0.0000 -1.0000
vn -1.0000 0.0000 -0.0000
vn 0.0000 0.9969 -0.0785
vn 0.0000 -0.9998 -0.0198
vn -0.9985 -0.0000 -0.0555
vn 0.9980 -0.0000 -0.0634
vn 0.0000 -0.9832 -0.1824
vn 0.0000 -0.9969 -0.0785
vn -0.9765 0.0000 -0.2154
vn 0.9696 0.0000 -0.2446
vn 0.0000 0.9832 -0.1824
vn -0.8873 -0.0000 -0.4611
vn 0.8597 -0.0000 -0.5109
s off
f 2//1 4//1 1//1
f 8//2 6//2 5//2
f 2//3 12//3 6//3
f 3//3 20//3 7//3
f 7//3 13//3 3//3
f 36//4 48//4 38//4
f 11//5 10//5 9//5
f 28//6 37//6 27//6
f 1//1 10//1 2//1
f 5//2 12//2 11//2
f 15//7 14//7 13//7
f 7//2 16//2 15//2
f 16//3 26//3 28//3
f 3//1 14//1 4//1
f 17//1 22//1 18//1
f 6//3 17//3 2//3
f 2//3 18//3 3//3
f 6//3 20//3 19//3
f 23//3 22//3 21//3
f 19//2 24//2 23//2
f 19//5 21//5 17//5
f 18//7 24//7 20//7
f 4//6 29//6 1//6
f 14//3 28//3 27//3
f 5//6 34//6 31//6
f 4//3 27//3 25//3
f 26//6 38//6 28//6
f 1//6 33//6 9//6
f 8//6 31//6 32//6
f 25//6 37//6 35//6
f 9//6 34//6 11//6
f 4//3 35//3 30//3
f 26//3 32//3 36//3
f 41//8 54//8 51//8
f 31//4 44//4 41//4
f 35//9 47//9 45//9
f 29//9 43//9 33//9
f 30//9 39//9 29//9
f 36//3 42//3 46//3
f 37//10 48//10 47//10
f 33//11 44//11 34//11
f 30//3 45//3 40//3
f 32//4 41//4 42//4
f 50//12 59//12 49//12
f 40//13 49//13 39//13
f 45//13 57//13 55//13
f 39//13 53//13 43//13
f 42//8 51//8 52//8
f 46//3 52//3 56//3
f 48//14 57//14 47//14
f 43//15 54//15 44//15
f 40//3 55//3 50//3
f 46//8 58//8 48//8
f 66//6 61//6 59//6
f 55//12 67//12 65//12
f 49//12 63//12 53//12
f 52//16 61//16 62//16
f 56//3 62//3 66//3
f 58//17 67//17 57//17
f 53//18 64//18 54//18
f 50//3 65//3 60//3
f 56//16 68//16 58//16
f 51//16 64//16 61//16
f 2//1 3//1 4//1
f 8//2 7//2 6//2
f 2//3 10//3 12//3
f 3//3 18//3 20//3
f 7//3 15//3 13//3
f 36//4 46//4 48//4
f 11//5 12//5 10//5
f 28//6 38//6 37//6
f 1//1 9//1 10//1
f 5//2 6//2 12//2
f 15//7 16//7 14//7
f 7//2 8//2 16//2
f 16//3 8//3 26//3
f 3//1 13//1 14//1
f 17//1 21//1 22//1
f 6//3 19//3 17//3
f 2//3 17//3 18//3
f 6//3 7//3 20//3
f 23//3 24//3 22//3
f 19//2 20//2 24//2
f 19//5 23//5 21//5
f 18//7 22//7 24//7
f 4//6 30//6 29//6
f 14//3 16//3 28//3
f 5//6 11//6 34//6
f 4//3 14//3 27//3
f 26//6 36//6 38//6
f 1//6 29//6 33//6
f 8//6 5//6 31//6
f 25//6 27//6 37//6
f 9//6 33//6 34//6
f 4//3 25//3 35//3
f 26//3 8//3 32//3
f 41//8 44//8 54//8
f 31//4 34//4 44//4
f 35//9 37//9 47//9
f 29//9 39//9 43//9
f 30//9 40//9 39//9
f 36//3 32//3 42//3
f 37//10 38//10 48//10
f 33//11 43//11 44//11
f 30//3 35//3 45//3
f 32//4 31//4 41//4
f 50//12 60//12 59//12
f 40//13 50//13 49//13
f 45//13 47//13 57//13
f 39//13 49//13 53//13
f 42//8 41//8 51//8
f 46//3 42//3 52//3
f 48//14 58//14 57//14
f 43//15 53//15 54//15
f 40//3 45//3 55//3
f 46//8 56//8 58//8
f 59//3 60//3 65//3
f 65//6 67//6 66//6
f 67//6 68//6 66//6
f 66//3 62//3 61//3
f 64//6 63//6 59//6
f 59//6 65//6 66//6
f 61//6 64//6 59//6
f 55//12 57//12 67//12
f 49//12 59//12 63//12
f 52//16 51//16 61//16
f 56//3 52//3 62//3
f 58//17 68//17 67//17
f 53//18 63//18 64//18
f 50//3 55//3 65//3
f 56//16 66//16 68//16
f 51//16 54//16 64//16
