# Blender v2.79 (sub 0) OBJ File: 'CALAVERA.blend'
# www.blender.org
o Cube
v -0.609485 -1.973393 -0.866180
v -0.805286 -1.058219 -0.719536
v -1.210741 1.517708 -0.358657
v -1.071234 2.459266 2.598733
v -1.284871 -0.200018 3.324173
v -1.136462 -0.368443 -0.475773
v -1.141936 0.896660 3.675734
v -1.139578 -1.893892 -0.349703
v -1.341382 -0.823542 0.210731
v -1.775594 1.744519 0.721953
v -1.685383 0.301833 0.230836
v -1.279861 -1.082781 -0.399608
v -1.711731 1.436811 2.706666
v -0.755048 2.665957 0.886438
v -1.719536 -0.266167 2.683167
v -1.191214 -1.701345 1.104111
v -0.593029 0.121013 -0.674405
v -1.054040 0.675417 0.032475
v -1.061103 2.183117 0.211014
v -1.802498 -0.100654 0.511981
v 0.259221 -2.375000 -0.736696
v -0.272217 -2.393961 -0.740015
v -0.023423 2.819211 1.623904
v 1.139431 -1.738267 1.091371
v -0.023423 -1.675371 -0.889603
v -0.024268 -0.539163 -0.886097
v -0.353931 -0.844286 2.846233
v -0.004449 -0.268511 3.678579
v 1.178939 1.213891 3.499667
v -0.036834 0.670257 3.996097
v 1.106704 1.654328 -0.378401
v -0.015580 1.652149 -0.728645
v 1.165445 2.256613 2.731474
v -0.023423 1.868100 3.547065
v 0.633679 2.683508 0.776992
v 0.633460 2.674026 2.333985
v 1.211929 -0.087550 3.440888
v 1.089616 -0.368443 -0.475773
v -0.045059 0.500213 -0.732199
v -1.218706 -1.027495 1.226067
v 1.171501 -1.032299 1.221675
v -0.026319 -1.123050 -1.135778
v -0.020409 0.306900 -1.089964
v 1.129398 -1.835373 -0.293344
v 1.193781 -1.025494 -0.368481
v 1.734265 1.356269 0.565029
v 1.497466 2.069346 0.828594
v 1.622331 0.479200 0.467090
v 1.798982 0.053860 0.522392
v 1.664758 1.435793 2.707258
v 1.262145 -0.821327 2.114971
v 1.688948 0.007065 2.680755
v 0.574349 -2.021955 -0.855984
v 0.694927 -0.965834 -0.717159
v 0.388279 0.878572 -0.479223
v 0.722447 -1.586757 -0.688241
v 0.627508 0.143515 -0.632601
vn -0.0791 0.9598 0.2694
vn -0.0037 -0.2900 -0.9570
vn -0.1079 0.1347 -0.9850
vn -0.4625 -0.3630 -0.8089
vn -0.7001 -0.0355 -0.7131
vn -0.3166 0.1773 -0.9318
vn -0.5335 -0.1958 -0.8228
vn -0.6537 0.4927 -0.5744
vn -0.2968 0.0105 -0.9549
vn -0.2890 0.6593 -0.6941
vn -0.1951 0.3462 0.9177
vn -0.6813 0.5584 -0.4733
vn -0.0209 0.8379 0.5454
vn -0.8447 -0.5352 -0.0085
vn -0.6668 0.7445 -0.0333
vn -0.2683 0.9610 0.0665
vn -0.6291 0.4602 0.6264
vn -0.6367 -0.3084 -0.7067
vn -0.5479 -0.1454 -0.8238
vn -0.6280 0.7391 -0.2438
vn -0.4291 0.2669 -0.8629
vn -0.3128 0.8625 -0.3979
vn 0.0178 -0.3343 -0.9423
vn 0.2829 -0.3892 -0.8766
vn 0.6589 0.3995 -0.6373
vn 0.5784 -0.1233 -0.8064
vn 0.6329 -0.5104 -0.5822
vn 0.2211 0.3402 0.9140
vn 0.1886 0.7704 -0.6090
vn 0.1601 0.7800 0.6049
vn 0.8238 -0.3712 -0.4284
vn 0.4093 0.3575 -0.8394
vn 0.2262 -0.3051 0.9251
vn 0.5785 0.8154 0.0207
vn 0.8786 -0.4762 0.0345
vn 0.9014 -0.4329 0.0108
vn 0.5051 -0.8612 0.0567
vn 0.2096 0.9778 0.0060
vn 0.7168 0.4196 0.5569
vn 0.6521 -0.1213 -0.7484
vn 0.8112 0.4198 -0.4070
vn 0.6201 -0.6836 -0.3850
vn 0.0050 -0.0881 -0.9961
vn -0.5903 -0.6262 -0.5094
vn -0.0650 0.8361 -0.5447
vn -0.8216 -0.3306 -0.4644
vn -0.3794 0.5366 0.7537
vn -0.0265 0.9836 -0.1782
vn -0.2107 -0.7603 0.6144
vn -0.4477 0.5382 -0.7141
vn -0.3457 0.0030 -0.9383
vn -0.3167 -0.2519 0.9145
vn -0.4165 0.3587 -0.8354
vn -0.9973 -0.0696 0.0213
vn -0.5445 0.7217 -0.4275
vn -0.9463 0.3175 0.0604
vn -0.9852 -0.1711 -0.0123
vn -0.9981 -0.0478 0.0392
vn -0.8370 0.5360 0.1100
vn -0.8414 -0.5403 -0.0069
vn -0.8617 -0.3366 -0.3797
vn -0.0131 -0.9423 0.3345
vn -0.4627 -0.8808 0.1002
vn -0.4017 -0.8610 0.3118
vn -0.8628 -0.0030 0.5056
vn -0.3999 -0.8436 0.3582
vn -0.8218 -0.0740 0.5649
vn 0.2180 0.2855 -0.9332
vn -0.0015 -0.9732 0.2300
vn 0.3182 0.1669 -0.9332
vn 0.2948 -0.1504 -0.9437
vn 0.5306 -0.2008 -0.8235
vn 0.2284 -0.8481 0.4780
vn 0.3899 -0.0317 0.9203
vn 0.3354 0.5616 0.7564
vn 0.4756 0.7872 -0.3926
vn 0.3427 0.0216 -0.9392
vn 0.0015 -0.1780 0.9840
vn 0.9988 -0.0479 0.0138
vn 0.5048 -0.0178 -0.8630
vn 0.9510 0.3086 0.0194
vn 0.9195 0.3891 0.0553
vn 0.8660 -0.4998 0.0173
vn 0.9907 -0.1306 0.0370
vn 0.8519 0.0047 0.5236
vn 0.7025 -0.6111 0.3648
vn 0.6150 0.7885 0.0049
vn 0.5718 -0.0129 -0.8203
vn 0.6957 0.1992 -0.6902
vn 0.5694 0.3094 -0.7616
vn 0.5413 0.7256 -0.4248
vn 0.6106 0.0105 -0.7919
vn 0.7061 0.0323 -0.7073
vn -0.0549 0.8239 -0.5641
vn -0.8633 -0.2620 -0.4314
vn -0.5097 0.4835 -0.7116
vn -0.2687 -0.3169 0.9096
vn -0.9999 0.0048 -0.0128
vn -0.9416 -0.3335 0.0468
vn -0.5920 -0.4274 -0.6832
vn 0.0309 -0.9305 0.3649
vn 0.0524 -0.9950 0.0846
vn 0.5109 -0.0104 -0.8596
vn 0.2212 -0.8430 0.4903
vn 0.4417 0.6647 -0.6025
vn 0.0025 -0.1816 0.9834
vn 0.9968 -0.0794 -0.0017
vn 0.8515 0.5151 0.0979
vn 0.9995 0.0174 -0.0264
vn 0.8472 -0.0025 0.5313
s off
f 36//1 23//1 4//1
f 53//2 22//2 1//2
f 25//3 1//3 2//3
f 25//4 2//4 42//4
f 8//5 2//5 1//5
f 26//6 2//6 6//6
f 26//7 17//7 43//7
f 17//8 6//8 20//8
f 32//9 39//9 3//9
f 32//10 3//10 19//10
f 34//11 7//11 30//11
f 10//12 19//12 3//12
f 36//13 4//13 34//13
f 15//14 20//14 9//14
f 14//15 10//15 4//15
f 23//16 14//16 4//16
f 4//17 13//17 7//17
f 11//18 17//18 20//18
f 12//19 2//19 8//19
f 10//20 14//20 19//20
f 10//21 18//21 11//21
f 12//22 9//22 2//22
f 53//23 21//23 22//23
f 56//24 25//24 42//24
f 38//25 57//25 49//25
f 39//26 55//26 48//26
f 55//27 31//27 46//27
f 29//28 34//28 30//28
f 35//29 31//29 32//29
f 33//30 36//30 34//30
f 54//31 38//31 49//31
f 26//32 54//32 42//32
f 28//33 37//33 30//33
f 47//34 35//34 33//34
f 51//35 49//35 52//35
f 41//36 45//36 51//36
f 21//37 44//37 24//37
f 35//38 23//38 36//38
f 50//39 33//39 29//39
f 56//40 45//40 44//40
f 46//41 31//41 47//41
f 21//42 53//42 44//42
f 25//43 53//43 1//43
f 22//44 8//44 1//44
f 19//45 35//45 32//45
f 6//46 9//46 20//46
f 34//47 4//47 7//47
f 35//48 14//48 23//48
f 27//49 28//49 5//49
f 17//50 18//50 39//50
f 26//51 6//51 17//51
f 5//52 30//52 7//52
f 26//53 42//53 2//53
f 11//54 13//54 10//54
f 39//55 43//55 17//55
f 15//56 11//56 20//56
f 16//57 12//57 8//57
f 16//58 40//58 12//58
f 13//59 4//59 10//59
f 9//60 40//60 15//60
f 3//61 18//61 10//61
f 16//62 21//62 24//62
f 22//63 16//63 8//63
f 40//64 27//64 15//64
f 7//65 13//65 15//65
f 27//66 5//66 15//66
f 5//67 7//67 15//67
f 25//68 56//68 53//68
f 51//69 40//69 41//69
f 26//70 38//70 54//70
f 55//71 32//71 31//71
f 43//72 57//72 26//72
f 37//73 27//73 51//73
f 37//74 29//74 30//74
f 29//75 33//75 34//75
f 39//76 57//76 43//76
f 57//77 38//77 26//77
f 16//78 41//78 40//78
f 24//79 45//79 41//79
f 42//80 54//80 56//80
f 47//81 50//81 46//81
f 52//82 49//82 48//82
f 51//83 45//83 49//83
f 50//84 48//84 46//84
f 29//85 52//85 50//85
f 37//86 51//86 52//86
f 33//87 35//87 36//87
f 45//88 56//88 54//88
f 49//89 57//89 48//89
f 45//90 54//90 49//90
f 47//91 31//91 35//91
f 48//92 55//92 46//92
f 44//93 53//93 56//93
f 19//94 14//94 35//94
f 6//95 2//95 9//95
f 17//96 11//96 18//96
f 5//97 28//97 30//97
f 11//98 15//98 13//98
f 9//99 12//99 40//99
f 3//100 39//100 18//100
f 16//101 22//101 21//101
f 51//102 27//102 40//102
f 55//103 39//103 32//103
f 37//104 28//104 27//104
f 39//105 48//105 57//105
f 16//106 24//106 41//106
f 24//107 44//107 45//107
f 47//108 33//108 50//108
f 50//109 52//109 48//109
f 29//110 37//110 52//110
