# Blender v2.77 (sub 0) OBJ File: ''
# www.blender.org
o Plane
v 0.000000 1.107883 0.000000
v -0.000091 0.000000 1.414214
v 1.414214 0.000000 0.000091
v -1.414214 0.000000 -0.000091
v 0.000091 0.000000 -1.414214
v 0.000000 0.000000 0.000000
v 0.000000 -1.107883 0.000000
vn 0.5249 0.6700 0.5249
vn -0.5249 0.6700 -0.5249
vn 0.5249 0.6700 -0.5249
vn -0.5249 0.6700 0.5249
vn 0.5249 -0.6700 0.5249
vn -0.5249 -0.6700 -0.5249
vn 0.5249 -0.6700 -0.5249
vn -0.5249 -0.6700 0.5249
s off
f 2//1 3//1 1//1
f 1//2 5//2 4//2
f 5//3 1//3 3//3
f 4//4 2//4 1//4
f 2//5 7//5 3//5
f 7//6 4//6 5//6
f 5//7 3//7 7//7
f 4//8 7//8 2//8
