# Blender v2.77 (sub 0) OBJ File: ''
# www.blender.org
o Cube
v -1.004317 -0.990382 0.997919
v -1.004317 -0.990382 -1.002081
v -1.004318 1.009618 0.997919
v -1.004317 1.009618 -1.002081
v -1.004317 -0.990382 -0.002081
v -1.004317 1.009618 -0.002081
v -1.004317 0.009618 0.997919
v -1.004317 0.009618 -1.002081
v -1.004317 0.009618 -0.002081
v -1.004317 0.009618 0.997919
v -1.004317 0.009618 -1.002081
v -1.004317 0.009618 -0.002081
v 0.993428 0.009618 -0.002081
vn -1.0000 -0.0000 -0.0000
vn 0.0000 0.0000 1.0000
vn 0.4476 0.8942 0.0000
vn 0.4476 0.0000 0.8942
vn 0.4476 -0.8942 0.0000
vn 0.4476 0.0000 -0.8942
s off
f 9/1/1 4/1/1 8/1/1
f 3/1/1 9/1/1 7/1/1
f 7/1/1 5/1/1 1/1/1
f 5/1/1 8/1/1 2/1/1
f 8/1/2 12/1/2 11/1/2
f 9/1/2 10/1/2 12/1/2
f 13/1/2 9/1/2 12/1/2
f 6/1/3 3/1/3 13/1/3
f 3/1/4 10/1/4 13/1/4
f 1/1/2 10/1/2 7/1/2
f 13/1/5 5/1/5 2/1/5
f 13/1/6 8/1/6 4/1/6
f 6/1/3 13/1/3 4/1/3
f 9/1/1 6/1/1 4/1/1
f 3/1/1 6/1/1 9/1/1
f 7/1/1 9/1/1 5/1/1
f 5/1/1 9/1/1 8/1/1
f 8/1/2 9/1/2 12/1/2
f 9/1/2 7/1/2 10/1/2
f 13/1/2 6/1/2 9/1/2
f 3/1/2 7/1/2 10/1/2
f 1/1/4 13/1/4 10/1/4
f 13/1/5 1/1/5 5/1/5
f 13/1/6 2/1/6 8/1/6
